<?xml version="1.0" encoding="UTF-8"?>
<svg id="_レイヤー_1" data-name="レイヤー 1" xmlns="http://www.w3.org/2000/svg" viewBox="0 0 1005.97344 1007.34795">
  <path d="M532.35484,.58126c0,.3279,.08943,.59618,.23847,.59618,.11924,0,.53656,.74522,.95389,1.63949,.41732,.89427,.83465,1.63949,.98369,1.63949,.11924,0,.20866,.17885,.20866,.38752s.53656,1.43083,1.19236,2.74242,1.19236,2.53376,1.19236,2.74242,.11924,.38752,.26828,.38752,.35771,.38752,.47694,.89427c.11924,.47694,.29809,.89427,.44713,.89427s.35771,.29809,.44713,.6558c.26828,.89427,1.43083,3.3386,1.69911,3.51745,.08943,.08943,.29809,.56637,.41732,1.04331,.11924,.50675,.38752,1.0135,.59618,1.19236,.17885,.14904,.68561,1.16255,1.10293,2.23567s1.10293,2.65299,1.55006,3.48764c.41732,.86446,.74522,1.69911,.74522,1.87796,0,.14904,.11924,.29809,.26828,.29809s.35771,.38752,.47694,.89427c.11924,.47694,.29809,.89427,.44713,.89427,.11924,0,.41732,.6558,.62599,1.49045,.20866,.80484,.47694,1.49045,.59618,1.49045s.29809,.38752,.41732,.89427c.11924,.47694,.29809,.89427,.44713,.89427s.3279,.38752,.44713,.89427c.11924,.47694,.29809,.89427,.44713,.89427,.11924,0,.3279,.47694,.41732,1.04331,.11924,.56637,.3279,1.04331,.44713,1.04331,.14904,0,.41732,.59618,.62599,1.3414s.47694,1.3414,.59618,1.3414,.3279,.47694,.41732,1.04331c.11924,.56637,.3279,1.04331,.44713,1.04331,.14904,0,.35771,.35771,.47694,.80484,.08943,.44713,.29809,.89427,.41732,.98369s.6558,1.28178,1.19236,2.6828c.53656,1.40102,1.10293,2.65299,1.25197,2.80204,.14904,.17885,.26828,.59618,.26828,.98369s.11924,.68561,.26828,.68561,.35771,.38752,.47694,.89427c.11924,.47694,.29809,.89427,.44713,.89427,.11924,0,.3279,.44713,.41732,.98369s.44713,1.52026,.77503,2.14624c.3279,.6558,.59618,1.40102,.59618,1.69911s.14904,.53656,.29809,.53656c.17885,0,.29809,.17885,.29809,.38752s.26828,.89427,.59618,1.55006,.59618,1.40102,.59618,1.69911,.11924,.53656,.26828,.53656,.41732,.62599,.62599,1.40102c.17885,.77503,.44713,1.55006,.59618,1.72892,.11924,.14904,.3279,.74522,.44713,1.25197,.08943,.53656,.3279,.98369,.44713,.98369,.14904,0,.35771,.50675,.47694,1.10293,.11924,.62599,.29809,1.19236,.41732,1.28178,.29809,.23847,1.78854,4.44153,1.78854,5.06752,0,.29809,.11924,.59618,.23847,.6558,.3279,.11924,2.44433,5.81274,2.44433,6.52815,0,.3279,.11924,.56637,.26828,.56637s.44713,.74522,.62599,1.63949c.17885,.89427,.44713,1.69911,.59618,1.78854,.11924,.08943,.3279,.68561,.44713,1.3414s.3279,1.19236,.47694,1.19236,.26828,.26828,.26828,.56637c0,.3279,.26828,1.28178,.56637,2.17605,.29809,.86446,.77503,2.3251,1.04331,3.21936,1.25197,4.41172,1.75873,6.17045,1.96739,6.70701,.41732,1.0135,1.13274,3.51745,1.3414,4.62038,.08943,.56637,.29809,1.31159,.44713,1.63949s.47694,1.60968,.71541,2.83185,.56637,2.77223,.74522,3.42803c.74522,3.12994,1.22217,5.51465,1.22217,6.31949,0,.47694,.11924,.98369,.26828,1.13274,.14904,.17885,.41732,1.49045,.59618,2.98089,.17885,1.46064,.50675,3.48764,.68561,4.47134,.44713,2.29529,.44713,21.40281,0,24.74141-.17885,1.31159-.47694,3.6665-.6558,5.21656-.14904,1.55006-.41732,3.10013-.56637,3.42803s-.35771,1.46064-.44713,2.50395c-.08943,1.04331-.29809,2.05682-.44713,2.23567-.11924,.17885-.3279,1.07312-.44713,1.96739-.11924,.89427-.3279,1.75873-.44713,1.93758-.14904,.14904-.41732,1.3414-.62599,2.59338-.20866,1.28178-.47694,2.3251-.59618,2.3251-.14904,0-.3279,.6558-.44713,1.49045-.11924,.80484-.29809,1.49045-.44713,1.49045-.11924,0-.3279,.47694-.41732,1.04331-.11924,.56637-.38752,1.40102-.62599,1.84815s-.44713,1.07312-.44713,1.3414-.11924,.56637-.26828,.6558-.41732,.83465-.62599,1.6693c-.20866,.80484-.47694,1.49045-.62599,1.49045s-.26828,.20866-.26828,.44713c0,.47694-2.05682,4.91847-2.41452,5.21656-.08943,.08943-.35771,.6558-.53656,1.25197-.20866,.62599-.50675,1.13274-.6558,1.13274s-.26828,.17885-.26828,.35771c0,.20866-.62599,1.31159-1.3414,2.47414-.74522,1.13274-1.49045,2.44433-1.6693,2.89147-.17885,.47694-.44713,.83465-.59618,.83465s-.26828,.17885-.26828,.35771c0,.20866-.38752,.80484-.86446,1.31159-.47694,.47694-.95389,1.19236-1.04331,1.55006-.11924,.35771-.3279,.6558-.47694,.6558s-.47694,.38752-.71541,.86446c-.44713,.86446-1.0135,1.55006-2.86166,3.57707-.56637,.62599-1.90777,2.11643-2.98089,3.27898-1.04331,1.16255-1.9972,2.11643-2.11643,2.11643s-.95389,.71541-1.84815,1.55006c-2.26548,2.17605-3.54726,3.21936-3.96459,3.21936-.20866,0-.41732,.20866-.53656,.44713-.08943,.23847-.35771,.44713-.62599,.44713-.23847,0-.44713,.11924-.44713,.26828s-.71541,.71541-1.55006,1.25197c-.86446,.56637-1.75873,1.16255-1.96739,1.37121-.20866,.17885-1.19236,.77503-2.23567,1.31159-1.0135,.50675-2.20586,1.19236-2.65299,1.49045-.41732,.29809-1.07312,.56637-1.40102,.56637-.35771,0-.62599,.11924-.62599,.26828s-.83465,.56637-1.84815,.95389c-1.04331,.38752-2.47414,1.0135-3.21936,1.37121-.74522,.38752-1.63949,.68561-1.9972,.68561s-.71541,.11924-.83465,.26828c-.08943,.17885-.77503,.38752-1.49045,.50675-.74522,.08943-1.43083,.29809-1.52026,.44713s-.53656,.26828-.98369,.26828-.92408,.11924-1.07312,.26828c-.35771,.3279-3.6665,.89427-10.58217,1.81834-2.89147,.38752-10.82064,.38752-13.71211,0-8.46574-1.13274-11.89376-1.78854-12.66879-2.44433-.14904-.11924-.53656-.23847-.89427-.23847-.71541,0-3.57707-.95389-5.48484-1.81834-.71541-.3279-1.96739-.86446-2.80204-1.19236-1.87796-.74522-4.76943-2.14624-4.97809-2.38471-.08943-.11924-.98369-.62599-1.9972-1.16255-1.04331-.53656-1.87796-1.07312-1.87796-1.16255,0-.11924-.62599-.53656-1.40102-.92408-.80484-.41732-1.55006-.89427-1.72892-1.07312-.14904-.17885-.83465-.71541-1.49045-1.19236s-1.3414-1.0135-1.52026-1.16255c-.17885-.17885-.74522-.62599-1.28178-1.04331s-1.13274-.92408-1.31159-1.13274c-.20866-.20866-.62599-.62599-.95389-.89427-.86446-.74522-4.88866-4.88866-6.11083-6.31949-.56637-.68561-1.49045-1.6693-1.9972-2.20586-.53656-.53656-.98369-1.19236-.98369-1.49045,0-.26828-.11924-.47694-.29809-.47694-.14904,0-.62599-.59618-1.07312-1.3414-.41732-.74522-.89427-1.3414-1.0135-1.3414-.14904,0-.35771-.29809-.47694-.6558-.08943-.35771-.41732-.89427-.71541-1.19236-.26828-.29809-.77503-1.07312-1.07312-1.6693-.3279-.59618-.74522-1.28178-.92408-1.49045-.20866-.20866-.38752-.56637-.38752-.80484,0-.20866-.08943-.44713-.20866-.50675-.14904-.05962-.56637-.74522-.98369-1.57987-.41732-.80484-.92408-1.6693-1.10293-1.87796-.20866-.20866-.38752-.53656-.38752-.71541,0-.3279-.86446-2.26548-2.26548-5.09733-.38752-.80484-.71541-1.69911-.71541-2.02701,0-.29809-.11924-.56637-.26828-.56637-.11924,0-.41732-.62599-.59618-1.43083-.20866-.77503-.50675-1.63949-.6558-1.90777-.14904-.29809-.26828-.68561-.26828-.86446s-.17885-.74522-.41732-1.25197c-.47694-1.10293-1.46064-4.44153-1.96739-6.61758-.17885-.83465-.53656-2.35491-.77503-3.42803-.59618-2.50395-1.28178-6.14064-1.63949-8.79363-.17885-1.16255-.41732-2.6828-.56637-3.42803-.83465-3.87516-1.16255-18.72001-.59618-25.81453,.38752-4.53096,.41732-4.79924,.68561-5.06752,.11924-.11924,.20866-.77503,.20866-1.43083,.02981-.68561,.14904-1.81834,.3279-2.56357,.17885-.74522,.41732-2.14624,.59618-3.12994,.14904-.98369,.38752-2.05682,.53656-2.38471,.29809-.6558,.74522-2.74242,1.37121-6.23007,.23847-1.31159,.56637-2.50395,.74522-2.6828,.14904-.14904,.29809-.68561,.29809-1.13274s.20866-1.3414,.44713-1.93758c.23847-.62599,.56637-1.6693,.71541-2.3251s.56637-2.20586,.92408-3.42803c.3279-1.22217,.74522-2.80204,.92408-3.51745,.17885-.68561,.44713-1.25197,.59618-1.25197s.26828-.23847,.26828-.50675c0-.56637,1.04331-3.93478,1.6693-5.36561,.23847-.50675,.41732-1.13274,.41732-1.37121s.86446-2.71261,1.90777-5.45503c1.0135-2.77223,1.96739-5.54446,2.08662-6.17045,.11924-.59618,.3279-1.10293,.47694-1.10293,.17885,0,.29809-.3279,.29809-.71541,0-.41732,.11924-.80484,.26828-.89427,.11924-.08943,.62599-1.19236,1.07312-2.47414,.47694-1.28178,.92408-2.38471,1.0135-2.47414,.11924-.08943,.35771-.83465,.56637-1.63949,.20866-.83465,.50675-1.55006,.68561-1.57987,.14904-.05962,.26828-.41732,.26828-.77503s.17885-.89427,.41732-1.22217c.20866-.3279,.50675-1.04331,.62599-1.57987,.08943-.50675,.29809-.95389,.41732-.95389s.59618-1.13274,1.07312-2.53376,.98369-2.53376,1.10293-2.53376c.08943,0,.26828-.38752,.38752-.89427,.08943-.47694,.50675-1.52026,.89427-2.35491,.38752-.80484,.80484-1.81834,.92408-2.23567,.08943-.41732,.29809-.77503,.41732-.77503,.14904,0,.41732-.68561,.62599-1.49045,.20866-.83465,.47694-1.49045,.59618-1.49045s.29809-.35771,.41732-.80484c.08943-.41732,.77503-2.02701,1.52026-3.54726,.71541-1.52026,1.31159-2.86166,1.31159-2.98089s.50675-1.31159,1.16255-2.62319c.62599-1.3414,1.52026-3.21936,1.93758-4.20306,.44713-.98369,.98369-2.17605,1.22217-2.62319,.23847-.47694,.44713-1.04331,.44713-1.28178s.20866-.50675,.44713-.59618,.50675-.62599,.62599-1.19236c.08943-.56637,.29809-1.0135,.41732-1.0135,.14904,0,.3279-.41732,.44713-.89427,.11924-.50675,.29809-.89427,.44713-.89427,.11924,0,.3279-.3279,.41732-.74522,.23847-.89427,2.29529-5.30599,2.56357-5.51465,.11924-.08943,.3279-.47694,.44713-.89427s.3279-.80484,.41732-.89427,.50675-.95389,.89427-1.93758,.86446-1.93758,1.07312-2.08662c.17885-.17885,.44713-.68561,.56637-1.19236,.11924-.47694,.3279-.95389,.41732-1.04331,.29809-.20866,1.84815-3.45784,1.84815-3.84535,0-.17885,.14904-.3279,.29809-.3279,.17885,0,.29809-.17885,.29809-.38752,0-.17885,.3279-1.0135,.74522-1.81834l.74522-1.46064-3.51745,.20866c-14.04,.80484-39.7353,3.72612-58.18702,6.58777-124.69074,19.40561-218.97638,67.18932-285.89742,144.87138C59.25737,234.1342,19.31341,349.40532,5.80996,509.56869-.3903,582.89865-1.43361,656.34784,1.75595,790.66686c.3279,13.44383,.86446,35.77071,1.19236,49.63186,1.04331,44.11721,1.16255,51.56944,1.49045,88.38347,.35771,40.09301,.3279,39.61606,2.38471,45.78651,2.17605,6.52815,5.21656,11.50625,10.10523,16.39491,4.88866,4.85886,9.86675,7.92917,16.39491,10.10523,6.73682,2.26548,3.9944,2.11643,48.61836,2.38471,43.28256,.26828,58.72359,.50675,127.43316,1.93758,30.64358,.6558,63.13531,1.28178,86.44589,1.69911,27.30498,.47694,104.98704,.47694,124.45227,0,29.86854-.71541,48.94626-1.46064,49.21454-1.90777,.26828-.41732,3.57707-17.3488,5.03771-25.7251,8.91287-51.06269,17.43822-137.59801,18.95848-192.83395l.20866-7.42242-2.50395,2.17605c-16.693,14.42752-45.99517,28.97428-77.77149,38.54294-50.82422,15.3516-100.78398,17.49784-131.36794,5.6935-29.83874-11.50625-41.52383-34.93606-34.36969-68.76919,1.60968-7.57147,5.12714-18.89886,8.37631-26.97708,1.90777-4.76943,6.43873-14.12943,8.88306-18.39211,9.95618-17.3488,22.95287-31.12052,38.78141-41.0767,4.68-2.95108,14.39771-7.75032,19.67389-9.71771,40.15262-14.90446,90.79799-6.91567,132.20259,20.83644,15.38141,10.31389,29.83874,24.26447,39.61606,38.27466l2.26548,3.21936v-19.16714l-1.55006-1.84815c-7.95898-9.53886-13.6823-27.18574-13.6823-42.23925,0-9.24077,1.55006-14.51695,5.48484-18.72001,3.75592-3.93478,9.56867-4.82905,17.25937-2.59338,13.32459,3.84535,21.87975,12.6986,23.96638,24.7116,.62599,3.54726,.41732,10.55236-.41732,14.18905-1.87796,8.04841-5.81274,15.29198-11.38701,20.89606-1.55006,1.57987-3.18956,3.12994-3.6665,3.48764l-.80484,.59618,.05962,10.76102,.08943,10.79083,2.44433-3.51745c23.87695-34.36969,65.99696-59.67747,109.1901-65.63926,14.04-1.93758,28.94447-1.81834,41.43441,.29809,16.48434,2.80204,30.40511,8.22726,43.81912,17.11032,6.52815,4.32229,10.37351,7.51185,16.57376,13.6823,9.65809,9.6879,17.0209,19.97198,23.45963,32.81963,7.48204,14.96408,13.53325,34.36969,15.11313,48.58855,.38752,3.48764,.38752,11.77453,0,15.20255-2.26548,19.76332-14.0102,34.25046-34.51874,42.62677-25.87415,10.52255-65.52002,10.88026-109.69685,.98369-41.52383-9.27058-81.11009-26.94727-101.97634-45.51823l-2.20586-1.93758,.20866,6.23007c1.96739,59.1111,10.37351,142.99342,19.43542,193.60898,1.81834,10.16484,4.14344,21.99899,4.32229,22.20765,.26828,.23847,22.56536-2.11643,37.97657-4.05401,120.04055-15.05351,209.76542-47.81352,276.32875-100.87341,46.35288-36.93326,81.97455-84.53812,106.80538-142.63571,23.31058-54.60995,37.38039-118.90781,42.35848-193.60898,1.75873-26.32128,2.47414-57.82932,1.84815-83.01786-.17885-7.45223-.44713-20.47873-.62599-28.91466-.35771-18.48153-.71541-27.69249-1.52026-38.00638-6.97529-90.85761-40.86804-173.24948-99.08487-241.0946-12.013-14.0102-27.60307-29.83874-41.64307-42.29887-57.73989-51.24154-130.50348-88.94984-210.68949-109.1901-36.57555-9.21096-72.31646-14.51695-111.78347-16.54395-8.13784-.41732-8.04841-.41732-8.04841,.29809h0Zm-25.54625,316.00443c.56637,1.37121,1.28178,3.10013,1.60968,3.84535,.3279,.74522,1.10293,2.62319,1.69911,4.17325,.59618,1.55006,1.63949,4.11363,2.26548,5.6637,.6558,1.55006,1.6693,4.17325,2.26548,5.81274s1.25197,3.36841,1.49045,3.87516c.50675,1.16255,5.21656,14.63618,7.3628,21.16434,4.08382,12.3707,7.30319,25.33759,8.55516,34.57835,.83465,6.11083,.71541,15.91797-.26828,21.31338-.53656,2.95108-1.90777,8.52535-2.59338,10.64179-1.69911,5.21656-5.39542,11.62548-8.49554,14.66599-1.43083,1.40102-3.81554,3.36841-4.62038,3.78573-.41732,.23847-1.28178,.68561-1.87796,.98369-4.91847,2.62319-11.86395,2.74242-17.16994,.35771-1.90777-.86446-4.3521-2.41452-5.24637-3.27898-.26828-.26828-1.0135-.95389-1.63949-1.55006-2.17605-1.96739-4.44153-5.24637-6.3493-9.15134-.83465-1.6693-1.52026-3.15975-1.52026-3.3386,0-.14904-.26828-.77503-.59618-1.40102-1.46064-2.83185-3.10013-11.56586-3.63669-19.25657-.38752-5.90217-.05962-11.3572,1.10293-18.18345,.80484-4.79924,2.11643-11.05911,2.50395-11.98319,.14904-.3279,.56637-1.81834,.92408-3.27898,.95389-3.78573,2.65299-9.71771,2.95108-10.43312,.17885-.3279,.98369-2.89147,1.81834-5.6637,.86446-2.80204,1.72892-5.48484,1.93758-5.96179,.23847-.50675,1.0135-2.65299,1.72892-4.76943,.71541-2.14624,1.72892-4.94828,2.23567-6.25987,.50675-1.31159,1.43083-3.72612,2.02701-5.36561,.59618-1.63949,1.25197-3.39822,1.46064-3.87516,.23847-.50675,1.13274-2.77223,2.02701-5.06752,3.27898-8.3465,5.45503-13.59287,6.14064-14.6958,.50675-.83465,.50675-.86446,1.90777,2.65299h0Z" style="fill: #60c500; fill-rule: evenodd;"/>
</svg>