<svg viewBox="0 0 2339.57737 811.06899" xmlns="http://www.w3.org/2000/svg"><path d="m428.62697.46801c0 .26401.072.48001.19201.48001.096 0 .43201.60002.76802 1.32004s.67202 1.32004.79202 1.32004c.096 0 .16801.144.16801.31201s.43201 1.15204.96003 2.20807.96003 2.04006.96003 2.20807.096.31201.21601.31201.28801.31201.38401.72002c.096.38401.24001.72002.36001.72002s.28801.24001.36001.52802c.21601.72002 1.15204 2.68808 1.36804 2.83209.072.072.24001.45601.33601.84003.096.40801.31201.81603.48001.96003.144.12.55202.93603.88803 1.80006s.88803 2.13607 1.24804 2.80809c.33601.69602.60002 1.36804.60002 1.51205 0 .12.096.24001.21601.24001s.28801.31201.38401.72002c.096.38401.24001.72002.36001.72002.096 0 .33601.52802.50402 1.20004.16801.64802.38401 1.20004.48001 1.20004s.24001.31201.33601.72002c.096.38401.24001.72002.36001.72002s.26401.31201.36001.72002c.096.38401.24001.72002.36001.72002.096 0 .26401.38401.33601.84003.096.45601.26401.84003.36001.84003.12 0 .33601.48001.50402 1.08003s.38401 1.08003.48001 1.08003.26401.38401.33601.84003c.096.45601.26401.84003.36001.84003.12 0 .28801.28801.38401.64802.072.36001.24001.72002.33601.79202s.52802 1.03203.96003 2.16007c.43201 1.12803.88803 2.13607 1.00803 2.25607.12.144.21601.48001.21601.79202s.096.55202.21601.55202.28801.31201.38401.72002c.096.38401.24001.72002.36001.72002.096 0 .26401.36001.33601.79202s.36001 1.22404.62402 1.72805c.26401.52802.48001 1.12803.48001 1.36804s.12.43201.24001.43201c.144 0 .24001.144.24001.31201s.21601.72002.48001 1.24804.48001 1.12803.48001 1.36804.096.43201.21601.43201.33601.50402.50402 1.12803c.144.62402.36001 1.24804.48001 1.39204.096.12.26401.60002.36001 1.00803.072.43201.26401.79202.36001.79202.12 0 .28801.40801.38401.88803.096.50402.24001.96003.33601 1.03203.24001.19201 1.44004 3.57611 1.44004 4.08013 0 .24001.096.48001.19201.52802.26401.096 1.96806 4.68014 1.96806 5.25616 0 .26401.096.45601.21601.45601s.36001.60002.50402 1.32004.36001 1.36804.48001 1.44004c.096.072.26401.55202.36001 1.08003s.26401.96003.38401.96003.21601.21601.21601.45601c0 .26401.21601 1.03203.45601 1.75205.24001.69602.62402 1.87206.84003 2.59208 1.00803 3.55211 1.41604 4.96815 1.58405 5.40017.33601.81603.91203 2.83209 1.08003 3.72011.072.45601.24001 1.05603.36001 1.32004s.38401 1.29604.57602 2.28007.45601 2.23207.60002 2.76009c.60002 2.52008.98403 4.44014.98403 5.08816 0 .38401.096.79202.21601.91203.12.144.33601 1.20004.48001 2.40007.144 1.17604.40801 2.80809.55202 3.60011.36001 1.84806.36001 17.23253 0 19.92061-.144 1.05603-.38401 2.95209-.52802 4.20013-.12 1.24804-.33601 2.49608-.45601 2.76009s-.28801 1.17604-.36001 2.01606-.24001 1.65605-.36001 1.80006c-.096.144-.26401.86403-.36001 1.58405s-.26401 1.41604-.36001 1.56005c-.12.12-.33601 1.08003-.50402 2.08806-.16801 1.03203-.38401 1.87206-.48001 1.87206-.12 0-.26401.52802-.36001 1.20004-.096.64802-.24001 1.20004-.36001 1.20004-.096 0-.26401.38401-.33601.84003-.096.45601-.31201 1.12803-.50402 1.48805s-.36001.86403-.36001 1.08003-.096.45601-.21601.52802-.33601.67202-.50402 1.34404c-.16801.64802-.38401 1.20004-.50402 1.20004s-.21601.16801-.21601.36001c0 .38401-1.65605 3.96012-1.94406 4.20013-.072.072-.28801.52802-.43201 1.00803-.16801.50402-.40801.91203-.52802.91203s-.21601.144-.21601.28801c0 .16801-.50402 1.05603-1.08003 1.99206-.60002.91203-1.20004 1.96806-1.34404 2.32807-.144.38401-.36001.67202-.48001.67202s-.21601.144-.21601.28801c0 .16801-.31201.64802-.69602 1.05603-.38401.38401-.76802.96003-.84003 1.24804-.096.28801-.26401.52802-.38401.52802s-.38401.31201-.57602.69602c-.36001.69602-.81603 1.24804-2.30407 2.88009-.45601.50402-1.53605 1.70405-2.40007 2.64008-.84003.93603-1.60805 1.70405-1.70405 1.70405s-.76802.57602-1.48805 1.24804c-1.82406 1.75205-2.85609 2.59208-3.1921 2.59208-.16801 0-.33601.16801-.43201.36001-.072.19201-.28801.36001-.50402.36001-.19201 0-.36001.096-.36001.21601s-.57602.57602-1.24804 1.00803c-.69602.45601-1.41604.93603-1.58405 1.10403-.16801.144-.96003.62402-1.80006 1.05603-.81603.40801-1.77605.96003-2.13607 1.20004-.33601.24001-.86403.45601-1.12803.45601-.28801 0-.50402.096-.50402.21601s-.67202.45601-1.48805.76802c-.84003.31201-1.99206.81603-2.59208 1.10403-.60002.31201-1.32004.55202-1.60805.55202s-.57602.096-.67202.21601c-.072.144-.62402.31201-1.20004.40801-.60002.072-1.15204.24001-1.22404.36001s-.43201.21601-.79202.21601-.74402.096-.86403.21601c-.28801.26401-2.95209.72002-8.52026 1.46405-2.32807.31201-8.71227.31201-11.04034 0-6.81621-.91203-9.5763-1.44004-10.20031-1.96806-.12-.096-.43201-.19201-.72002-.19201-.57602 0-2.88009-.76802-4.41614-1.46405-.57602-.26401-1.58405-.69602-2.25607-.96003-1.51205-.60002-3.84012-1.72805-4.00812-1.92006-.072-.096-.79202-.50402-1.60805-.93603-.84003-.43201-1.51205-.86403-1.51205-.93603 0-.096-.50402-.43201-1.12803-.74402-.64802-.33601-1.24804-.72002-1.39204-.86403-.12-.144-.67202-.57602-1.20004-.96003s-1.08003-.81603-1.22404-.93603c-.144-.144-.60002-.50402-1.03203-.84003s-.91203-.74402-1.05603-.91203c-.16801-.16801-.50402-.50402-.76802-.72002-.69602-.60002-3.93612-3.93612-4.92015-5.08816-.45601-.55202-1.20004-1.34404-1.60805-1.77605-.43201-.43201-.79202-.96003-.79202-1.20004 0-.21601-.096-.38401-.24001-.38401-.12 0-.50402-.48001-.86403-1.08003-.33601-.60002-.72002-1.08003-.81603-1.08003-.12 0-.28801-.24001-.38401-.52802-.072-.28801-.33601-.72002-.57602-.96003-.21601-.24001-.62402-.86403-.86403-1.34404-.26401-.48001-.60002-1.03203-.74402-1.20004-.16801-.16801-.31201-.45601-.31201-.64802 0-.16801-.072-.36001-.16801-.40801-.12-.048-.45601-.60002-.79202-1.27204-.33601-.64802-.74402-1.34404-.88803-1.51205-.16801-.16801-.31201-.43201-.31201-.57602 0-.26401-.69602-1.82406-1.82406-4.10413-.31201-.64802-.57602-1.36804-.57602-1.63205 0-.24001-.096-.45601-.21601-.45601-.096 0-.33601-.50402-.48001-1.15204-.16801-.62402-.40801-1.32004-.52802-1.53605-.12-.24001-.21601-.55202-.21601-.69602s-.144-.60002-.33601-1.00803c-.38401-.88803-1.17604-3.57611-1.58405-5.32816-.144-.67202-.43201-1.89606-.62402-2.76009-.48001-2.01606-1.03203-4.94415-1.32004-7.08022-.144-.93603-.33601-2.16007-.45601-2.76009-.67202-3.1201-.93603-15.07246-.48001-20.78464.31201-3.64811.33601-3.86412.55202-4.08013.096-.096.16801-.62402.16801-1.15204.024-.55202.12-1.46405.26401-2.06406s.33601-1.72805.48001-2.52008c.12-.79202.31201-1.65605.43201-1.92006.24001-.52802.60002-2.20807 1.10403-5.01615.19201-1.05603.45601-2.01606.60002-2.16007.12-.12.24001-.55202.24001-.91203s.16801-1.08003.36001-1.56005c.19201-.50402.45601-1.34404.57602-1.87206s.45601-1.77605.74402-2.76009c.26401-.98403.60002-2.25607.74402-2.83209.144-.55202.36001-1.00803.48001-1.00803s.21601-.19201.21601-.40801c0-.45601.84003-3.1681 1.34404-4.32013.19201-.40801.33601-.91203.33601-1.10403s.69602-2.18407 1.53605-4.39214c.81603-2.23207 1.58405-4.46414 1.68005-4.96815.096-.48001.26401-.88803.38401-.88803.144 0 .24001-.26401.24001-.57602 0-.33601.096-.64802.21601-.72002.096-.072.50402-.96003.86403-1.99206.38401-1.03203.74402-1.92006.81603-1.99206.096-.072.28801-.67202.45601-1.32004.16801-.67202.40801-1.24804.55202-1.27204.12-.048.21601-.33601.21601-.62402s.144-.72002.33601-.98403c.16801-.26401.40801-.84003.50402-1.27204.072-.40801.24001-.76802.33601-.76802s.48001-.91203.86403-2.04006.79202-2.04006.88803-2.04006c.072 0 .21601-.31201.31201-.72002.072-.38401.40801-1.22404.72002-1.89606.31201-.64802.64802-1.46405.74402-1.80006.072-.33601.24001-.62402.33601-.62402.12 0 .33601-.55202.50402-1.20004.16801-.67202.38401-1.20004.48001-1.20004s.24001-.28801.33601-.64802c.072-.33601.62402-1.63205 1.22404-2.85609.57602-1.22404 1.05603-2.30407 1.05603-2.40007s.40801-1.05603.93603-2.11207c.50402-1.08003 1.22404-2.59208 1.56005-3.3841.36001-.79202.79202-1.75205.98403-2.11207.19201-.38401.36001-.84003.36001-1.03203s.16801-.40801.36001-.48001.40801-.50402.50402-.96003c.072-.45601.24001-.81603.33601-.81603.12 0 .26401-.33601.36001-.72002.096-.40801.24001-.72002.36001-.72002.096 0 .26401-.26401.33601-.60002.19201-.72002 1.84806-4.27213 2.06406-4.44014.096-.072.26401-.38401.36001-.72002s.26401-.64802.33601-.72002.40801-.76802.72002-1.56005.69602-1.56005.86403-1.68005c.144-.144.36001-.55202.45601-.96003.096-.38401.26401-.76802.33601-.84003.24001-.16801 1.48805-2.78409 1.48805-3.0961 0-.144.12-.26401.24001-.26401.144 0 .24001-.144.24001-.31201 0-.144.26401-.81603.60002-1.46405l.60002-1.17604-2.83209.16801c-11.30435.64802-31.99299 3.00009-46.84944 5.30416-100.39509 15.62448-176.30943 54.09767-230.19109 116.6436-56.64173 65.76208-88.80272 158.57294-99.67505 287.52892-4.99215 59.04182-5.83218 118.17964-3.2641 226.32698.26401 10.82433.69602 28.80089.96003 39.96123.84003 35.52109.93603 41.52128 1.20004 71.16219.28801 32.28099.26401 31.89698 1.92006 36.86514 1.75205 5.25616 4.20013 9.26429 8.13625 13.20041 3.93612 3.91212 7.94424 6.3842 13.20041 8.13625 5.42417 1.82406 3.2161 1.70405 39.14521 1.92006 34.84907.21601 47.28146.40801 102.60316 1.56005 24.67276.52802 50.83357 1.03203 69.60215 1.36804 21.98468.38401 84.53061.38401 100.20309 0 24.04874-.57602 39.40921-1.17604 39.62522-1.53605.21601-.33601 2.88009-13.96843 4.05613-20.71264 7.17622-41.11327 14.04043-110.78741 15.26447-155.26079l.16801-5.97618-2.01606 1.75205c-13.44041 11.61636-37.03314 23.32872-62.61793 31.03296-40.92126 12.36038-81.1465 14.08843-105.77126 4.58414-24.02474-9.26429-33.43303-28.12887-27.67285-55.36971 1.29604-6.09619 4.12813-15.21647 6.74421-21.72067 1.53605-3.84012 5.18416-11.37635 7.15222-14.80846 8.01625-13.96843 18.48057-25.05677 31.22496-33.07302 3.76812-2.37607 11.59236-6.24019 15.84049-7.82424 32.329-12.00037 73.10625-5.56817 106.44328 16.77652 12.38438 8.30426 24.02474 19.5366 31.89698 30.81695l1.82406 2.59208v-15.43248l-1.24804-1.48805c-6.4082-7.68024-11.01634-21.88867-11.01634-34.00905 0-7.44023 1.24804-11.68836 4.41614-15.07246 3.02409-3.1681 7.70424-3.88812 13.89643-2.08806 10.72833 3.0961 17.61654 10.22432 19.29659 19.89661.50402 2.85609.33601 8.49626-.33601 11.42435-1.51205 6.4802-4.68014 12.31238-9.16828 16.82452-1.24804 1.27204-2.56808 2.52008-2.95209 2.80809l-.64802.48001.048 8.66427.072 8.68827 1.96806-2.83209c19.22459-27.67285 53.13764-48.04948 87.91471-52.84963 11.30435-1.56005 23.30472-1.46405 33.36103.24001 13.27241 2.25607 24.48075 6.6242 35.28109 13.77642 5.25616 3.48011 8.35226 6.04819 13.34441 11.01634 7.77624 7.80024 13.70442 16.0805 18.88858 26.42481 6.02419 12.04837 10.89634 27.67285 12.16838 39.12121.31201 2.80809.31201 9.48029 0 12.24038-1.82406 15.91249-11.28035 27.57685-27.79286 34.32106-20.83264 8.47226-52.75363 8.76027-88.32272.79202-33.43303-7.46423-65.30601-21.69667-82.10653-36.64913l-1.77605-1.56005.16801 5.01615c1.58405 47.59347 8.35226 115.13155 15.64848 155.8848 1.46405 8.18425 3.3361 17.71255 3.48011 17.88055.21601.19201 18.16856-1.70405 30.57694-3.2641 96.65098-12.12037 168.89321-38.49719 222.48686-81.2185 37.32115-29.73692 66.00203-68.0661 85.99465-114.84354 18.76858-43.96936 30.09693-95.73895 34.10505-155.8848 1.41604-21.19265 1.99206-46.56144 1.48805-66.84206-.144-6.00018-.36001-16.48851-.50402-23.28072-.28801-14.88046-.57602-22.29669-1.22404-30.60094-5.61617-73.15425-32.90501-139.4923-79.77846-194.11798-9.6723-11.28035-22.22468-24.02474-33.52903-34.05705-46.48943-41.25727-105.07524-71.61821-169.63723-87.91471-29.44895-7.41622-58.22584-11.68835-90.00282-13.3204-6.5522-.33601-6.4802-.33601-6.4802.24001zm-20.56863 254.43184c.45601 1.10403 1.03203 2.49608 1.29604 3.0961s.88803 2.11207 1.36804 3.3601c.48001 1.24804 1.32004 3.3121 1.82406 4.56014.52802 1.24804 1.34404 3.3601 1.82406 4.68014s1.00803 2.71208 1.20004 3.1201c.40801.93603 4.20013 11.78436 5.92818 17.04053 3.2881 9.96031 5.88018 20.40063 6.88821 27.84086.67202 4.92015.57602 12.8164-.21601 17.16053-.43201 2.37607-1.53605 6.86421-2.08806 8.56826-1.36804 4.20013-4.34413 9.36029-6.84021 11.80836-1.15204 1.12803-3.07209 2.71208-3.72011 3.04809-.33601.19201-1.03203.55202-1.51205.79202-3.96012 2.11207-9.55229 2.20807-13.82443.28801-1.53605-.69602-3.50411-1.94406-4.22413-2.64008-.21601-.21601-.81603-.76802-1.32004-1.24804-1.75205-1.58405-3.57611-4.22413-5.11216-7.36823-.67202-1.34404-1.22404-2.54408-1.22404-2.68808 0-.12-.21601-.62402-.48001-1.12803-1.17604-2.28007-2.49608-9.31229-2.92809-15.50448-.31201-4.75215-.048-9.14428.88803-14.64045.64802-3.86412 1.70405-8.90427 2.01606-9.6483.12-.26401.45601-1.46405.74402-2.64008.76802-3.04809 2.13607-7.82424 2.37607-8.40026.144-.26401.79202-2.32807 1.46405-4.56014.69602-2.25607 1.39204-4.41614 1.56005-4.80015.19201-.40801.81603-2.13607 1.39204-3.84012.57602-1.72805 1.39204-3.98412 1.80006-5.04016.40801-1.05603 1.15204-3.00009 1.63205-4.32013s1.00803-2.73608 1.17604-3.1201c.19201-.40801.91203-2.23207 1.63205-4.08013 2.64008-6.72021 4.39214-10.94434 4.94415-11.83236.40801-.67202.40801-.69602 1.53605 2.13607z" fill="#60c500" fill-rule="evenodd"/><path d="m1304.02507 374.85612c18.02267 4.94696 31.80411 13.78143 31.80411 27.56287 0 22.61591-31.09666 35.33617-82.33661 35.33617-68.36365 0-83.77049-29.20553-89.0496-55.30864-59.67411 15.1739-89.3438 50.47901-104.9413 107.25604-47.35244 1.41317-77.03593-20.84901-77.03593-57.95381 0-34.27672 25.79684-53.00685 79.15568-60.07442 29.83878-4.02383 70.17282-4.54665 100.48524-4.58979l-.13027-1.05945-14.44575-119.08768h-2.51317v66.08083c0 27.56287 3.53379 42.40548 7.06758 49.82678v.70572h-146.29682v-.70572c7.77503-7.4213 15.54919-22.26391 15.54919-49.82678v-146.29681c0-27.56287-7.77416-42.40375-15.54919-49.82505v-.70745h162.19888c40.99144 0 114.49272 0 114.49272 62.19504 0 60.50407-86.90828 64.88852-131.0979 68.3809v1.93254c25.44311-1.41317 45.9384-2.82634 72.44183-.35372 41.3443 3.88751 54.06629 24.3828 58.30667 53.00685l10.19502 70.92599c4.19034.74196 8.0882 1.59262 11.70654 2.56752l-.0069.01208zm-159.01795-132.16166c9.54106 0 14.13516-30.03721 14.13516-60.42815 0-30.74294-4.94696-61.83959-14.13516-61.83959zm165.02522 179.86265c10.24851 0 17.66895-8.48075 17.66895-19.08212 0-14.51304-14.17743-22.32258-34.67272-26.22735l4.63637 32.23893c1.41317 9.5402 5.65355 13.07399 12.3674 13.07399zm180.23104-149.30261c-9.54106 45.79605-41.34344 81.73442-101.45065 81.73442-62.01559 0-95.72636-38.16424-95.72636-86.50365 0-53.74708 42.29763-87.45784 97.63388-87.45784 64.24233 0 96.9989 31.16568 86.50365 84.27605h-86.96091c11.07674 12.18709 27.09613 19.71537 49.42733 19.71537 13.67532 0 31.80324-3.18007 49.93117-11.7678l.64188.00345zm-120.21442-84.59872c-6.99683 0-.63584 31.48489 3.81591 45.47856 2.93246 10.38913 7.31174 19.81718 13.43375 27.65259 1.58054-27.80271-6.2937-73.12771-17.24966-73.12771v-.00345zm229.29947 161.87621v.6367h-106.22075v-.6367c3.49755-3.18007 6.99597-9.85769 6.99597-22.26218v-196.85867c0-12.40277-3.81591-19.08212-7.63268-22.26218v-.63498l99.86062-3.81677v223.57259c0 12.4045 3.49842 19.08212 6.99683 22.26218zm7.63613-82.68688c0-52.79289 37.52754-87.13863 99.22478-87.13863 62.01559 0 99.22478 34.34574 99.22478 87.13863 0 52.4754-37.20918 87.14036-99.22478 87.14036-61.69724 0-99.22478-34.66496-99.22478-87.14036zm104.94993-1.90838c-20.67215-63.28727-27.35064-78.55263-31.48489-77.28094-4.13426 1.27341-.6367 17.81044 20.03545 81.09771s27.35064 78.55263 31.48489 77.28094.63584-17.81044-20.03545-81.09771zm295.13011 55.33797c0 12.40277 1.27254 19.08039 11.44944 19.39961v.63498c-10.81274 7.63354-26.07809 12.4045-50.24866 12.4045-25.04108 0-47.0013-4.31026-49.50411-24.457-10.11996 14.79084-33.64779 25.72868-59.56972 25.72868-24.48806 0-47.38608-9.85941-47.38608-38.48173 0-26.71393 19.39961-38.16424 47.06773-42.93347 16.5888-2.81426 44.27245-5.01253 57.8753-27.83377v-46.57942c0-9.85769-7.95103-14.31116-16.21954-14.31116-4.09026 0-10.32012.8058-15.49743 2.90399 20.08635 13.02567 25.67692 27.46107 25.67692 39.38761 0 24.80727-19.08126 39.11843-45.15935 39.11843-24.17057 0-41.3443-14.63037-41.3443-37.21005 0-36.25585 43.25183-48.33941 90.00207-48.33941 49.93031 0 92.86465 10.81188 92.86465 49.29361v91.27461h-.0069zm-103.04413-23.52869c0 16.53703 4.13426 30.21321 12.72113 30.21321v-75.97648c-8.18569 8.93283-12.71767 28.70514-12.71767 45.75636l-.00345.0069zm316.80563 26.88303c.2778 10.2511 2.18446 15.75539 11.40631 16.04182v.63498c-10.81447 7.63354-26.07982 12.4045-50.56787 12.4045-25.44225 0-47.70444-4.45347-49.93031-24.80727-12.08528 16.53876-29.89572 26.07895-50.8845 26.07895-39.11843 0-59.15302-27.66812-59.15302-73.78339 0-63.28727 38.16251-100.4956 104.31236-100.4956h3.81677l-1.11984-51.84905c-.83341-10.37361-4.30336-16.17123-7.77503-19.06486v-1.27341l100.81481-3.81504-.91278 219.92837zm-90.99336-141.06171c-9.54192 0-12.40277 49.93031-12.40277 89.36623 0 35.30166 3.81504 60.74391 12.40277 55.01876v-144.385zm-438.5498 236.91417v70.56251c0 12.93984 1.41509 18.80314 11.32181 19.20792v.40368c-4.65005 7.27948-15.1634 15.77112-35.17979 15.77112-34.7761 0-34.7761-24.26275-34.7761-36.39413v-69.55111h-8.28979v-.40478l66.51908-35.58457h.40478v33.56285h11.32181v2.42649h-11.32181zm143.14454 88.96306c0 7.88611 2.22465 12.13138 4.44821 14.15309v.40478h-65.50768v-.40478c1.21325-2.02171 2.42649-6.26698 2.42649-14.15309v-69.34926c0-3.84158-2.02281-5.8633-5.25777-5.8633-.56823 0-1.10574.06911-1.61474.19416v75.01511c0 7.88501 1.21325 12.13028 2.4254 14.15309v.40368h-65.50768v-.40368c2.22465-2.02281 4.44821-6.26808 4.44821-14.15309v-125.15316c0-7.88501-2.42649-12.13138-4.85189-14.15309v-.40368l63.48597-2.42649-.78433 64.79465c9.52608-9.51949 22.22788-16.46989 37.98583-16.46989 14.55787 0 28.30618 6.06514 28.30618 28.91171v64.90106l-.00219.00219zm134.66497-34.97794c-6.06624 29.11465-26.28447 51.96231-64.49737 51.96231-39.42615 0-60.85763-24.26275-60.85763-54.99433 0-34.16948 26.88999-55.60096 62.07088-55.60096 40.84124 0 61.6661 19.81345 54.99433 53.57815h-55.28613c7.04254 7.74789 17.2268 12.53396 31.42377 12.53396 8.69457 0 20.21823-2.02171 31.74298-7.48133l.40917.00219zm-76.42691-53.78328c-4.44711 0-.40368 20.01639 2.42649 28.9128 1.86485 6.60485 4.64895 12.59869 8.541 17.58002 1.00482-17.67546-4.00174-46.49063-10.96749-46.49063zm-552.10501 180.22325c34.98417 23.32163 81.27544 30.38921 128.27415 21.90846h1.05945c-13.07399 58.30753-60.0727 101.77245-134.63428 101.77245-83.04406 0-137.81607-53.71429-137.81607-127.92215 0-76.6822 59.01325-126.86098 150.18434-126.86098 27.20915 0 60.78015 2.12062 103.89135 13.78143l8.83447 103.18562h-.70745c-36.75107-64.31394-107.42514-107.77886-146.29682-107.77886-21.90846 0-32.50983 13.78143-32.50983 31.45038 0 25.44225 21.20274 65.01966 59.7207 90.46364zm285.27415 111.2954c20.78517 0 41.26666 13.14473 41.26666 40.04329 0 37.60001-43.10085 46.46381-77.03075 46.46381-67.86153 0-105.1544-40.35043-105.1544-108.82278v-197.46948c0-11.92136-3.66838-18.34016-7.33675-21.39599v-.61255l95.98346-3.66838v279.08656c0 39.92423 19.67051 47.84765 42.97834 46.12734-27.4835-9.6558-32.58748-28.32726-32.58748-40.6196 0-25.37151 21.09058-39.12706 41.87748-39.12706l.00345-.00518zm-38.09349-87.54757c0-52.79289 37.52754-87.13863 99.22564-87.13863 62.01559 0 99.22391 34.34574 99.22391 87.13863 0 52.4754-37.20832 87.14036-99.22391 87.14036-61.6981 0-99.22564-34.66496-99.22564-87.14036zm104.94907-1.90838c-20.67129-63.28727-27.35064-78.55263-31.48489-77.28094-4.13426 1.27341-.63498 17.81044 20.03631 81.09771s27.35064 78.55263 31.48489 77.28094c4.13426-1.27168.6367-17.81044-20.03631-81.09771zm290.68871-81.41865v.6367c-3.49755 3.18007-8.90349 9.5402-16.53703 22.26218l-91.27461 150.10842h-.63498l-91.27461-150.10842c-7.63181-12.40277-13.03948-19.08212-16.53703-22.26218v-.6367h104.63158v.6367c0 3.18007 1.90838 9.85941 9.22271 21.62548l40.77317 67.65447 6.18068-10.14239-47.91149-79.13411v-.6367l103.36162-.00345zm178.10438 88.73643c-9.54192 45.79605-41.3443 81.73442-101.45151 81.73442-62.01559 0-95.72636-38.16424-95.72636-86.50365 0-53.74708 42.29677-87.45784 97.63474-87.45784 64.24147 0 96.99804 31.16568 86.50365 84.27605h-86.96263c11.0776 12.18709 27.09699 19.71537 49.42819 19.71537 13.67618 0 31.80238-3.18007 49.93031-11.7678zm-120.21614-84.59872c-6.99511 0-.63498 31.48489 3.81677 45.47856 2.93332 10.38913 7.3126 19.81718 13.43461 27.65259 1.58054-27.80271-6.29456-73.12771-17.25138-73.12771v-.00345zm274.77458-8.27197c6.99683 0 14.63037 1.27341 23.53559 4.13426v87.45784c-24.06186-9.25032-61.58767-10.42364-76.00581.25192v56.04197c0 12.4045 5.72343 19.08212 11.44858 22.26218v.6367h-110.67422v-.6367c3.49928-3.18007 6.99683-9.85769 6.99683-22.26218v-117.03263c0-12.4045-3.81677-19.08212-7.63181-22.26218v-.6367l99.22391-3.81677-1.27168 79.18933h.6367v-1.90838c3.49755-48.02192 18.1262-81.4152 53.74535-81.4152l-.00345-.00345z"/></svg>