<?xml version="1.0" encoding="UTF-8"?><svg id="_レイヤー_2" xmlns="http://www.w3.org/2000/svg" viewBox="0 0 1627.39 566.71"><defs><style>.cls-1,.cls-2{fill:#fd5f00;}.cls-2{stroke:#fd5f00;stroke-miterlimit:10;stroke-width:3.11px;}</style></defs><g id="_レイヤー_1-2"><g><path class="cls-1" d="M145.85,224.8c0-51.52-127.79-46.83-127.79-120.09,0-43.49,45.16-77.27,113.4-77.27,37.8,0,77.28,10.37,77.28,42.82,0,17.73-14.72,33.45-34.79,33.45-17.73,0-29.44-11.04-31.11-30.44,10.03-4.68,17.06-13.72,17.06-23.75s-8.7-19.4-31.78-19.4c-30.11,0-52.52,16.73-52.52,36.8,0,48.51,128.79,41.48,128.79,114.74,0,47.17-53.19,85.3-122.77,85.3-47.5,0-81.62-17.73-81.62-49.84,0-22.41,17.4-36.8,35.79-36.8,17.39,0,30.11,13.05,31.11,30.78-7.02,3.01-18.06,10.7-18.06,25.42,0,13.72,9.37,27.77,39.14,27.77,31.78,0,57.87-16.06,57.87-39.47Z"/><path class="cls-1" d="M233.49,218.78l13.38-85.97c1.67-11.71,4.68-25.09-8.03-25.09-5.35,0-10.04,2.68-16.06,7.02l-1.34-2.68c16.39-13.38,40.14-25.09,61.22-25.09,31.45,0,28.43,26.43,25.09,46.83l-14.39,84.97c-2.34,13.38-4.68,30.11,7.36,30.11,7.36,0,14.72-9.37,17.73-22.75h2.68c-4.68,26.09-26.43,40.81-52.52,40.81-22.41,0-40.81-11.71-35.12-48.17h0Zm22.75-177.3c0-22.41,20.07-41.48,40.81-41.48,18.06,0,30.44,14.05,30.44,31.45,0,22.41-20.07,41.48-40.81,41.48-18.06,0-30.44-14.05-30.44-31.44h0Z"/><path class="cls-1" d="M542.91,226.14c-4.68,26.09-26.43,40.81-52.52,40.81-22.41,0-40.81-11.71-35.12-48.17l12.71-79.62c3.35-20.74,1-28.77-7.69-28.77-11.32,0-27.02,15.32-42.86,40.22l-17.68,113.65c-20.41-.67-40.48,0-60.55,2.68l20.74-134.14c1.67-11.71,4.35-25.09-8.03-25.09-5.35,0-10.03,2.68-16.06,7.03l-1.34-2.68c17.06-13.72,39.48-25.09,62.56-25.09,19.4,0,30.78,11.37,23.75,44.16l-3.09,14.31c26.88-42.26,55.53-59.8,80.36-59.8,29.44,0,35.46,20.74,30.77,50.18l-13.38,82.96c-2.01,13.38-5.02,30.11,7.03,30.11,7.36,0,14.72-9.37,17.73-22.75h2.67Z"/><path class="cls-1" d="M620.52,169.94c0,37.13,18.06,55.87,45.16,56.53,17.73,.33,41.48-5.02,56.53-25.76l2.34,1c-22.75,41.15-58.88,65.23-98.02,65.23-41.82,0-70.59-27.77-70.59-72.26,0-58.21,47.5-109.06,111.4-109.06,38.81,0,64.56,15.72,64.56,42.82,0,20.74-15.39,35.46-34.46,35.46-14.05,0-28.77-8.7-27.43-30.44,6.36-2.68,16.73-11.04,16.73-25.09,0-12.04-6.69-20.07-18.73-20.07-28.77,0-47.5,45.5-47.5,81.62h0Z"/><path class="cls-1" d="M852.67,226.48c17.73,.33,41.48-5.02,56.53-25.76l2.34,1c-22.75,41.15-58.88,65.23-98.02,65.23-41.81,0-70.59-27.77-70.59-72.26,0-58.21,47.5-109.05,111.4-109.05,27.43,.33,65.57,7.02,65.57,38.14,0,24.46-32.67,48.27-111.89,35.59-.34,3.58-.5,7.11-.5,10.56,0,37.13,18.06,55.87,45.16,56.53h0s0,0,0,0Zm1.67-138.15c-24.58,0-41.99,34.81-45.97,67.71,43.67,1.78,62.02-26.62,62.02-46.97,0-12.04-4.68-20.74-16.06-20.74h0s0,0,0,0Z"/><path class="cls-1" d="M1076.79,85.65c26.76,0,40.14,17.73,40.14,37.47,0,23.42-18.4,44.16-41.81,44.16-15.05,0-26.76-9.03-27.43-28.1,15.05-3.01,22.41-16.73,22.41-28.43,0-8.7-3.35-15.72-11.04-15.72-14.45,0-32.11,27.07-45.42,61.28l-16.8,107.98c-20.41-.67-40.48,0-60.55,2.68l20.74-134.14c1.67-11.71,4.68-25.09-8.03-25.09-5.35,0-10.04,2.68-16.06,7.02l-1.34-2.68c17.06-13.72,39.47-25.09,62.56-25.09,19.4,0,30.78,11.37,23.75,44.16l-3.6,16.67c13.84-32.34,30.25-62.16,62.47-62.16h0s0,0,0,0Z"/><path class="cls-1" d="M1233.67,226.48c17.73,.33,41.48-5.02,56.53-25.76l2.34,1c-22.75,41.15-58.88,65.23-98.02,65.23-41.81,0-70.59-27.77-70.59-72.26,0-58.21,47.5-109.05,111.4-109.05,27.43,.33,65.57,7.02,65.57,38.14,0,24.46-32.67,48.27-111.89,35.59-.34,3.58-.5,7.11-.5,10.56,0,37.13,18.06,55.87,45.16,56.53h0s0,0,0,0Zm1.67-138.15c-24.58,0-41.99,34.81-45.97,67.71,43.67,1.78,62.02-26.62,62.02-46.97,0-12.04-4.68-20.74-16.06-20.74h0Z"/><path class="cls-1" d="M1324.65,218.78l27.43-172.95c2.01-12.38,4.01-25.09-8.03-25.09-5.35,0-10.04,2.68-16.06,7.03l-1.34-2.68C1341.71,12.71,1366.13,0,1387.21,0c32.11,0,28.1,29.1,24.76,49.84l-27.1,168.93c-2.01,13.38-5.02,30.11,7.03,30.11,7.36,0,14.72-9.37,17.73-22.75h2.68c-4.68,26.09-26.43,40.81-52.52,40.81-22.41,0-40.81-11.71-35.12-48.17h0Z"/><path class="cls-1" d="M1566.84,90.99c20.41,.67,40.48,0,60.55-2.68l-27.77,175.29c-9.03,57.2-76.94,115.08-142.84,115.08-76.94,0-121.77-67.57-178.3-67.57-25.09,0-33.12,14.05-33.12,25.42,0,9.7,6.36,18.4,20.41,18.4,10.7,0,20.41-6.02,24.42-15.72,13.38,3.68,23.75,13.72,23.75,28.77,0,17.06-13.05,29.44-31.11,29.44-19.4,0-43.15-15.72-43.15-45.16,0-55.53,59.88-73.59,96.01-73.59,86.31,0,128.79,88.31,163.25,88.31,25.09,0,33.12-54.19,36.13-72.26l10.72-65.94c-12.44,23.91-37.88,38.18-64.91,38.18s-48.17-14.72-42.15-54.53l12.38-79.62c1.67-11.71,4.35-25.09-8.03-25.09-5.35,0-10.03,2.68-16.06,7.03l-1.34-2.68c17.06-13.72,40.14-25.09,61.22-25.09s30.78,12.04,26.09,40.48l-13.72,81.29c-2.34,13.72-5.69,41.15,14.72,41.15,14.44,0,28.11-15.85,32.52-28.08l20.33-130.82h0Z"/></g><g><path class="cls-2" d="M354.19,507.23c-9.22,0-19.09-3.07-29.61-8.74-9.22-5.02-17.31-7.44-25.24-7.44-10.52,0-20.55,4.53-32.04,13.43-.65,.49-1.13,.65-1.62,.65-.32,0-.48-.16-.48-.49,0-1.62,14.89-21.52,37.05-21.52,9.39,0,19.26,3.07,29.77,8.74,9.22,4.86,17.31,7.44,25.08,7.44,10.52,0,20.55-4.69,32.2-13.59,.65-.49,1.13-.65,1.62-.65,.32,0,.49,.16,.49,.49,0,1.94-14.89,21.68-37.22,21.68h0Z"/><path class="cls-2" d="M461.29,513.86c0,3.88-4.04,5.02-5.18,5.02-1.78,0-3.4-1.13-3.4-4.21v-.49c.81-10.19,.97-26.54,1.13-41.58-11.98,17.96-34.3,32.2-39.48,32.2-.65,0-.97-.16-.97-.49,0-.49,.65-1.29,2.43-2.1,10.03-5.18,35.11-32.2,38.19-43.69-6.96,0-19.42,.32-26.54,1.46h-.16c-1.62,0-6.31-5.99-6.31-7.77,8.74,1.46,24.92,2.1,33.01,2.26,0-4.05-.16-22.49-1.78-28.15-.16-.49-.32-.97-.32-1.13s.16-.16,.49-.16h.97c2.75,.16,8.58,2.26,11.81,3.07,2.1,.49,3.08,1.46,3.08,2.59,0,.97-1.13,2.27-2.75,3.07-3.56,1.78-4.05,.65-4.37,6.15-.32,3.4-.32,8.58-.48,14.56h8.9c.16,0,1.29-.49,1.78-1.29,1.46-2.59,3.72-5.66,5.18-7.12,.32-.32,.65-.49,1.13-.49,2.91,0,11.81,7.77,11.81,11.17,0,.97-.65,1.78-2.91,1.78h-26.05v12.46c11,1.62,27.02,4.05,27.02,14.08,0,2.75-1.62,4.69-3.88,4.69-1.62,0-3.72-1.13-5.66-3.88-3.88-5.5-11.81-11-17.48-14.08,0,15.21,.32,31.71,.81,41.91v.16h0Zm-15.05,18.93c0,16.34-12.62,28.64-20.71,28.64-3.24,0-5.18-2.1-5.18-4.53,0-2.59,2.1-5.66,6.8-7.28,9.71-3.24,14.89-10.36,18.45-18.93,.11-.22,.22-.32,.32-.32,.16,0,.32,.49,.32,.65v1.78h0Zm16.02,21.36c.16-4.53,.65-12.62,.65-15.53,0-2.43,0-7.44-.65-11.16-.16-.49-.16-.81-.16-1.13s.16-.32,.65-.32c1.78,0,13.75,1.13,13.75,4.05,0,.97-.97,1.94-2.59,2.75-3.56,1.78-3.24,.97-3.72,5.66-.48,5.99-.48,6.96-.48,12.94,0,4.21,.81,6.63,24.11,6.63,18.28,0,22-2.59,25.4-20.71,.32-1.29,.49-1.78,.65-1.78,1.13,0,2.27,12.78,4.85,14.4,1.94,1.29,3.08,2.75,3.08,4.37,0,1.94-1.62,4.05-5.02,5.99-7.44,4.21-19.09,4.69-34.3,4.69-23.14,0-26.21-5.99-26.21-10.52v-.32h0Zm31.23-19.74c-2.1-4.21-8.09-9.71-12.3-13.11-1.13-.81-1.46-1.29-1.46-1.46,0-.11,.11-.16,.32-.16,10.36,0,22.98,5.66,22.98,13.27,0,3.07-2.1,5.5-4.53,5.5-1.78,0-3.56-1.13-5.02-4.05h0Zm54.37-23.46c0,3.4-2.43,5.66-4.69,5.66-1.78,0-3.4-1.46-3.4-4.53v-5.66h-36.57v7.44c0,2.59-2.75,4.53-5.02,4.53-1.78,0-3.24-.97-3.24-3.72v-.32c1.13-20.23,.97-53.88,1.13-61.65,0-2.1-.81-15.7-1.94-20.55-.16-.49-.16-.81-.16-1.13,0-.16,0-.32,.16-.32,.97,0,9.55,3.24,13.11,5.83l.65,.49h28.32c.81,0,1.62-.49,2.1-1.13,2.59-3.72,4.21-3.72,4.37-3.72,.65,0,10.84,3.72,10.84,7.93,0,1.94-2.59,3.07-3.72,3.72-3.24,1.78-3.24,3.24-3.24,15.05,0,15.21,.81,40.29,1.29,51.78v.32h0Zm-41.26-69.58l-1.29,.97c-1.62,.97-2.1,.32-2.1,5.34,0,2.26-.16,6.15-.16,11.16h37.05c0-6.96-.16-12.62-.32-15.86,0-.16-.49-1.62-1.46-1.62h-31.71Zm33.5,21.68h-37.05v15.86h37.05v-15.86Zm-37.05,20.06c0,6.31,.16,12.95,.16,19.09h36.57c0-5.99,.16-12.62,.16-19.09h-36.89Zm24.27,48.06c0-.16,.16-.32,.81-.32,5.5,0,30.74,9.55,30.74,20.87,0,3.4-2.1,5.99-4.69,5.99-2.1,0-4.37-1.46-6.31-5.18-4.85-9.22-12.62-15.37-20.39-21.04,0,0-.16-.16-.16-.32h0Z"/><path class="cls-2" d="M644.78,540.08c0,1.78-.49,6.31-7.93,6.31-5.66,0-12.13-3.4-16.18-6.96-15.05-12.78-18.12-28.32-18.12-45.14,0-6.15,.48-12.46,.81-18.77,.16-1.62,.16-3.24,.16-4.69,0-3.07-.16-5.66-.65-8.25,0-.49-.16-.81-.16-1.13,0-.97,.32-1.46,.97-1.46,.32,0,9.39,2.27,9.39,13.59,0,1.94-.32,3.88-.65,5.5-1.29,5.5-2.43,13.11-2.43,21.04,0,30.42,18.29,33.98,20.39,33.98,2.59,0,4.21-1.46,5.34-3.4,3.23-5.66,6.96-15.7,9.71-22.01,1.46-3.24,2.1-4.37,2.43-4.37s.32,.32,.32,.97c0,1.29-.49,3.72-.65,4.53-.65,4.04-2.59,11.16-3.4,21.2v1.78c0,2.91,.49,4.69,.65,6.8v.49h0Zm58.09-32.2c-1.29-15.05-11.81-27.83-26.05-31.39-4.85-1.13-7.12-2.27-7.12-2.91,0-.49,1.13-.81,3.07-.81,22.01,0,40.13,17.96,40.13,33.33,0,5.02-2.75,7.61-5.34,7.61-2.26,0-4.37-1.94-4.69-5.83Z"/><path class="cls-2" d="M811.11,516.61c-14.56,8.58-20.39,17.31-20.39,24.27,0,7.61,7.93,15.05,22.33,15.05,6.15,0,12.78-1.29,18.29-4.21,1.62-.81,3.07-1.13,4.37-1.13,2.91,0,5.02,1.78,5.02,3.88,0,7.28-18.45,9.55-24.76,9.55-21.36,0-30.9-13.59-30.9-22.01,0-11.33,12.46-22.65,26.05-30.58,0-17.15-5.34-23.79-11.49-23.79-4.53,0-10.52,3.72-17.31,13.27-5.5,10.19-10.36,17.64-14.24,17.64-2.59,0-3.56-2.59-3.56-4.21,0-2.91,1.62-6.8,5.82-10.84,13.92-13.43,19.58-21.84,28.48-42.72-.81,.16-1.46,.49-2.1,.65-3.88,.97-6.96,1.46-9.55,1.46-14.4,0-18.45-11-18.45-13.27,0-.22,.11-.32,.32-.32,.32,0,1.46,.49,3.4,1.94,5.5,3.72,10.19,4.85,14.56,4.85s9.22-1.13,14.08-2.43c.65-2.75,.81-5.02,.81-6.96,0-6.47-2.75-7.93-7.44-9.22-.97-.16-1.62-.65-1.62-1.29,0-.32,1.94-2.75,6.31-2.75,8.58,0,9.22,8.09,9.22,11.17,0,2.26-.32,4.53-.81,6.8,.97-.32,7.93-3.56,7.93-6.31,0-.32-.16-1.29-3.4-2.43-1.94-.81-2.75-1.29-2.75-1.62s.49-.49,1.46-.49c.49,0,.97,.16,1.62,.16,1.29,.16,2.75,.16,3.88,.16,1.78,0,3.07,0,3.4-.16,.49-.16,.81-.32,1.13-.32,2.43,0,2.59,3.24,2.59,3.56,0,2.43-.97,8.58-18.28,14.72-4.69,11.65-11.81,23.46-14.56,28.16,3.4-2.1,6.63-2.91,9.71-2.91,8.25,0,14.4,7.28,16.5,16.67,7.12-17.15,20.55-34.3,36.08-34.3,6.8,0,19.58,5.83,19.58,13.92,0,6.31-7.77,12.46-17.8,16.67-10.84,4.53-25.24,10.36-36.41,16.02,.16,2.43,.16,5.02,.16,7.61,0,3.07,0,6.31-.32,9.55-.32,4.85-3.72,8.9-6.31,8.9-1.62,0-2.91-1.62-2.91-5.5,0-.65,.16-1.29,.16-1.94,.32-4.21,1.94-4.53,2.1-11.33v-3.56h0Zm6.63-8.74c9.06-4.69,22.65-11.33,32.36-16.18,6.8-3.4,12.62-7.61,12.62-12.3,0-1.13-2.1-8.58-11-8.58-13.43,0-27.99,17.8-33.98,36.57v.49Z"/><path class="cls-2" d="M984.56,500.76c0,1.13-1.29,2.1-4.53,2.59-2.27,.32-2.27,.65-3.88,3.24-5.66,8.9-11.65,16.67-17.96,23.46,15.21,7.77,24.6,16.02,24.6,23.3,0,4.04-2.75,7.28-5.18,7.28-1.62,0-3.07-1.13-3.88-4.05-2.1-7.12-9.71-16.83-16.99-24.92-25.08,25.89-55.5,33.49-57.93,33.49-.32,0-.49,0-.49-.16,0-.32,.81-.81,2.59-1.62,24.6-10.03,49.68-30.1,67.64-60.52,1.78-2.91,3.08-6.8,3.88-9.55,.16-.65,.16-.97,.48-.97,.65,0,11.65,5.5,11.65,8.41h0Zm-10.68-19.74c0,1.29-1.29,2.43-4.37,2.43h-.49c-2.43,0-3.08,.81-3.88,2.43-17.96,32.52-57.28,50-61.65,50-.65,0-.97-.16-.97-.49,0-.49,.97-1.29,2.91-2.27,28.48-13.27,52.26-44.98,54.85-58.9,.16-.97,.32-1.94,1.13-1.94,1.29,0,12.46,5.83,12.46,8.74h0Zm19.9-26.21c0,.97-.65,1.78-3.24,1.78h-43.2c4.85,2.43,6.63,3.56,6.63,5.02,0,1.13-1.29,2.1-4.53,2.26-2.1,0-2.91,.65-4.04,2.27-3.24,4.37-9.87,11.16-15.37,16.5,5.66,2.91,9.55,6.31,9.55,10.52,0,2.75-1.94,4.85-4.37,4.85-1.62,0-3.4-.81-4.85-3.24-3.08-4.85-9.87-12.14-17.8-15.86-.32-.16-.65-.32-.65-.49s.32-.32,1.13-.32c4.05,.16,9.71,1.29,14.72,3.4,11-17.31,12.3-21.52,12.78-24.76-9.71,.16-21.68,.49-29.77,1.29h-.16c-2.43,0-6.31-5.99-6.31-7.77,10.68,1.29,28.32,1.94,40.13,2.1v-5.66c-.16-3.07-.32-14.72-1.13-20.87,0-.65-.16-.97-.16-1.13s.16-.32,.32-.32c1.62,0,14.89,2.1,14.89,5.66,0,1.13-1.13,2.1-2.75,3.24-4.21,2.75-3.72,1.94-4.05,9.06l-.65,10.19h21.52c.32,0,1.29-.49,1.78-1.29,2.27-3.56,5.18-8.25,6.96-8.25,.32,0,.65,0,.97,.16,4.21,1.62,11.65,9.39,11.65,11.65h0Zm48.06-20.87c0,1.29-1.29,2.59-2.59,3.24-3.88,1.94-3.72,0-4.05,9.87-.49,11.97-.65,24.11-.65,36.08,0,15.05,.32,29.77,.48,43.69,0,1.29,.49,16.18,.49,19.74-.32,13.92-14.56,17.96-18.93,17.96-.81,0-1.29-.32-2.1-1.46-1.78-2.75-18.77-10.52-18.77-11.49,0,0,0-.16,.16-.16s.65,.16,1.29,.32c8.41,2.1,14.4,3.07,18.93,3.07,9.22,0,11.49-3.88,11.65-9.06,.32-12.62,.32-27.02,.32-41.1,0-54.04-.32-66.18-2.1-75.08-.16-.49-.32-.81-.32-1.13,0,0,.16-.16,.32-.16,.97,0,15.86,2.27,15.86,5.66h0Zm-34.79,22.81c-.49,10.36-.81,21.68-.81,33.49,0,12.62,.32,25.73,.81,38.51,0,2.1-1.13,5.83-4.85,5.83-1.78,0-3.24-1.29-3.24-4.69v-.49c.65-18.12,1.29-38.67,1.29-54.53,0-19.25-.65-29.45-1.62-33.82-.16-.49-.16-.81-.16-.97s0-.32,.16-.32c.65,0,14.89,1.94,14.89,6.15,0,.97-.81,1.94-2.1,2.75-3.72,2.27-3.88,.32-4.37,8.09h0Z"/><path class="cls-2" d="M1192.31,494.29c-5.34,0-11,1.13-14.4,2.1-.81,.16-1.29,.32-1.78,.32-.81,0-1.13-.32-1.13-.65s.65-.97,1.94-1.46c.32-.16,16.18-6.15,16.18-12.46,0-5.18-5.02-10.36-11.16-10.36-2.43,0-12.95,.81-12.95,21.84,0,5.02,.49,10.36,.81,14.89,.65,9.55,4.69,16.67,4.69,23.79,0,8.74-10.52,29.45-39.97,29.45-12.13,0-31.07-4.85-31.07-24.11,0-3.24,.49-6.47,1.29-9.87h-.81c-9.71,0-13.27-18.61-13.27-25.57,0-5.34,1.94-15.05,10.68-15.05,3.72,0,7.6,1.78,10.19,4.53v-22.49c-2.43,.49-4.85,.65-6.96,.65-12.3,0-17.47-10.68-17.47-12.95,0-.65,.32-.81,.81-.81,.97,0,2.75,.81,4.53,2.26,4.05,3.07,8.25,3.88,12.46,3.88,2.27,0,4.37-.16,6.63-.49,0-3.07,.16-5.99,.32-8.58v-1.46c0-4.53-1.46-6.15-3.23-8.09-.65-.81-1.29-1.29-1.29-1.94,0-.81,1.78-4.05,4.69-4.05,2.43,0,8.74,2.1,8.74,7.93v1.62c6.31,2.43,9.06,2.75,10.68,2.75,3.4,0,7.77,.49,7.77,4.37,0,.81-.81,8.41-21.84,13.59-1.13,9.22-1.62,19.42-1.94,29.13,1.46,2.59,2.1,5.34,2.1,8.25,0,3.88-1.29,8.09-3.56,12.95-2.75,5.83-5.82,12.78-5.82,19.09,0,16.99,22.33,16.99,24.6,16.99,13.75,0,34.3-6.8,34.3-26.86,0-.81-.16-1.62-.16-2.43-.81-11.97-1.46-21.04-1.46-28.32,0-6.63,.16-28.96,16.02-28.96,8.74,0,21.04,6.96,21.04,18.77,0,4.21-2.1,7.77-7.77,7.77h-2.43Zm-81.71,12.94c0-7.77-5.5-15.7-10.03-15.7-3.24,0-5.5,3.88-5.5,9.71,0,10.68,5.99,18.12,9.39,18.12,2.75,0,6.15-5.83,6.15-12.14h0Zm7.77-46.6c3.07-.65,11.65-2.59,11.65-5.66,0-.32-3.18-2.27-9.55-5.83l-1.13,6.47-.97,5.02h0Z"/><path class="cls-2" d="M1324.99,507.23c-9.22,0-19.09-3.07-29.61-8.74-9.22-5.02-17.31-7.44-25.24-7.44-10.52,0-20.55,4.53-32.04,13.43-.65,.49-1.13,.65-1.62,.65-.32,0-.48-.16-.48-.49,0-1.62,14.89-21.52,37.05-21.52,9.39,0,19.26,3.07,29.77,8.74,9.22,4.86,17.31,7.44,25.08,7.44,10.52,0,20.55-4.69,32.2-13.59,.65-.49,1.13-.65,1.62-.65,.32,0,.49,.16,.49,.49,0,1.94-14.89,21.68-37.22,21.68h0Z"/></g></g></svg>